<svg width="4000" height="1500" viewBox="0 0 4000 1500" xmlns="http://www.w3.org/2000/svg"><mask id="satori_om-id"><rect x="0" y="0" width="4000" height="1500" fill="#fff"/></mask><mask id="satori_om-id-0"><rect x="963" y="276" width="2075" height="760" fill="#fff"/></mask><g  ><path fill="#4A7C4E" d="M1091.8 753.2L1094.9 717.1L1320.2 717.1L1322.5 753.2L1091.8 753.2ZM1135.1 915.4L1135.1 915.4Q1135.1 922.3 1130.0 926.6Q1124.9 931 1113.9 931L1113.9 931L995.7 931Q984.7 931 979.5 926.8Q974.4 922.6 974.4 915.4L974.4 915.4Q974.4 910.5 977.4 906.9Q980.5 903.3 988.8 899.5L988.8 899.5L1002.1 894.5Q1013.5 889.2 1019.4 880.6Q1025.3 872.1 1032.2 850.1L1032.2 850.1L1159.8 464.4Q1164.8 449.2 1162.3 442.5Q1159.8 435.9 1146.2 432.1L1146.2 432.1Q1135.9 428.6 1131.7 424.5Q1127.5 420.3 1127.5 414.2L1127.5 414.2Q1127.5 407.0 1132.9 403.0Q1138.2 399 1148.8 399L1148.8 399L1320.2 399Q1331.2 399 1336.2 403.0Q1341.1 407.0 1341.1 414.2L1341.1 414.2Q1341.1 420.7 1337.1 424.8Q1333.1 429.0 1323.2 431.7L1323.2 431.7Q1312.6 434.3 1310.7 439.5Q1308.8 444.6 1312.6 456.4L1312.6 456.4L1447.9 859.9Q1453.2 877.0 1460.2 885.4Q1467.3 893.8 1480.2 897.2L1480.2 897.2Q1490.8 901.0 1494.6 905.0Q1498.4 909.0 1498.4 915.4L1498.4 915.4Q1498.4 922.3 1493.1 926.6Q1487.8 931 1476.8 931L1476.8 931L1317.5 931Q1306.9 931 1301.6 926.6Q1296.3 922.3 1296.3 915.4L1296.3 915.4Q1296.3 909.3 1300.1 905.5Q1303.9 901.7 1311.8 899.5L1311.8 899.5L1336.2 895.3Q1346.0 892.6 1346.0 886.0Q1346.0 879.3 1341.1 864.9L1341.1 864.9L1201.3 439.3L1213.0 432.8L1077.4 845.1Q1072.8 859.9 1072.8 869.3Q1072.8 878.6 1078.7 884.5Q1084.6 890.3 1097.1 894.9L1097.1 894.9L1119.6 899.8Q1127.5 902.5 1131.3 905.9Q1135.1 909.3 1135.1 915.4ZM1667.9 390.3L1667.9 390.3L1667.9 874.4Q1667.9 885.4 1671.5 890.7Q1675.1 896.0 1682.0 898.3L1682.0 898.3L1697.9 902.1Q1705.1 904.4 1708.4 908.0Q1711.6 911.6 1711.6 916.9L1711.6 916.9Q1711.6 923.4 1707.0 927.2Q1702.5 931 1692.6 931L1692.6 931L1549.0 931Q1539.1 931 1534.5 927.2Q1530.0 923.4 1530.0 916.9L1530.0 916.9Q1530.0 911.6 1533.4 908.0Q1536.8 904.4 1543.6 902.1L1543.6 902.1L1560.0 898.3Q1567.2 896.0 1570.8 890.9Q1574.4 885.8 1574.4 874.8L1574.4 874.8L1574.4 449.2Q1574.4 440.0 1571.6 436.1Q1568.7 432.1 1561.9 430.9L1561.9 430.9L1539.1 429.8Q1532.2 428.3 1529.4 425.2Q1526.5 422.2 1526.5 417.2L1526.5 417.2Q1526.5 411.9 1530.0 408.3Q1533.4 404.7 1542.9 401.3L1542.9 401.3L1609.8 377.3Q1623.4 372.4 1631.4 370.3Q1639.4 368.2 1645.5 368.2L1645.5 368.2Q1656.5 368.2 1662.2 374.1Q1667.9 380 1667.9 390.3ZM1879.9 588.6L1879.9 588.6L1879.9 633.1L1883.7 641.1L1883.7 1051.5Q1883.7 1062.5 1887.3 1068.0Q1891.0 1073.5 1897.8 1075.0L1897.8 1075.0L1921.0 1079.2Q1928.2 1081.1 1931.4 1084.9Q1934.7 1088.7 1934.7 1094.0L1934.7 1094.0Q1934.7 1100.5 1930.1 1104.3Q1925.5 1108.1 1915.7 1108.1L1915.7 1108.1L1764.8 1108.1Q1755.3 1108.1 1750.7 1104.3Q1746.2 1100.5 1746.2 1094.0L1746.2 1094.0Q1746.2 1088.7 1749.4 1085.1Q1752.6 1081.5 1759.5 1079.2L1759.5 1079.2L1775.8 1075.4Q1783.0 1073.1 1786.6 1068.0Q1790.3 1062.9 1790.3 1051.8L1790.3 1051.8L1790.3 647.5Q1790.3 638.4 1787.2 634.4Q1784.2 630.4 1777.7 629.3L1777.7 629.3L1754.9 628.1Q1748.1 626.6 1745.2 623.6Q1742.4 620.5 1742.4 615.6L1742.4 615.6Q1742.4 610.3 1745.8 607.0Q1749.2 603.8 1758.7 600.0L1758.7 600.0L1821.8 575.7Q1834.7 570.8 1842.9 568.7Q1851.1 566.6 1857.1 566.6L1857.1 566.6Q1868.9 566.6 1874.4 572.5Q1879.9 578.4 1879.9 588.6ZM1863.6 681.3L1863.6 681.3L1848.8 660.8Q1878.4 615.2 1917.4 589.8Q1956.3 564.3 2003.1 564.3L2003.1 564.3Q2047.9 564.3 2083.1 587.3Q2118.2 610.3 2138.5 650.6Q2158.9 690.8 2158.9 743.3L2158.9 743.3Q2158.9 803.7 2134.9 847.8Q2111.0 891.9 2070.3 916.0Q2029.7 940.1 1979.5 940.1L1979.5 940.1Q1934.3 940.1 1898.9 918.5Q1863.6 896.8 1841.6 856.1L1841.6 856.1L1864.0 835.6Q1883.4 868.3 1908.6 884.8Q1933.9 901.4 1962.8 901.4L1962.8 901.4Q1990.9 901.4 2013.1 885.4Q2035.4 869.4 2048.3 836.6Q2061.2 803.7 2061.2 753.5L2061.2 753.5Q2061.2 706.0 2048.7 674.7Q2036.1 643.3 2014.6 627.8Q1993.2 612.2 1965.4 612.2L1965.4 612.2Q1936.6 612.2 1910.7 629.3Q1884.9 646.4 1863.6 681.3ZM2342.4 390.3L2342.4 390.3L2342.4 874.4Q2342.4 885.4 2345.8 890.7Q2349.2 896.0 2356.5 898.3L2356.5 898.3L2372.0 902.1Q2383.8 906.7 2383.8 916.2L2383.8 916.2Q2383.8 931 2364.4 931L2364.4 931L2223.5 931Q2213.6 931 2209.0 927.2Q2204.5 923.4 2204.5 916.9L2204.5 916.9Q2204.5 911.6 2207.7 908.0Q2210.9 904.4 2218.1 902.1L2218.1 902.1L2234.5 898.3Q2241.7 896.0 2245.3 890.9Q2248.9 885.8 2248.9 874.8L2248.9 874.8L2248.9 449.2Q2248.9 440.0 2245.9 436.1Q2242.8 432.1 2236.4 430.9L2236.4 430.9L2213.6 429.8Q2206.7 428.3 2203.9 425.2Q2201.0 422.2 2201.0 417.2L2201.0 417.2Q2201.0 411.9 2204.5 408.3Q2207.9 404.7 2217.4 401.3L2217.4 401.3L2284.3 377.3Q2297.2 372.4 2305.3 370.3Q2313.5 368.2 2320.4 368.2L2320.4 368.2Q2331.4 368.2 2336.9 374.1Q2342.4 380 2342.4 390.3ZM2347.0 657.8L2331 671.1L2315.0 654.7L2330.6 641.1Q2377.0 599.6 2410.2 582.0Q2443.5 564.3 2473.9 564.3L2473.9 564.3Q2520.2 564.3 2545.7 595.1Q2571.2 625.9 2576.9 677.5L2576.9 677.5L2598.9 873.2Q2600.4 885.0 2603.7 890.5Q2606.9 896.0 2614.5 898.3L2614.5 898.3L2629.3 902.1Q2636.1 904.4 2639.4 908.0Q2642.6 911.6 2642.6 916.9L2642.6 916.9Q2642.6 923.4 2638.2 927.2Q2633.9 931 2624.0 931L2624.0 931L2481.5 931Q2462.1 931 2462.1 916.2L2462.1 916.2Q2462.1 906.7 2473.9 902.1L2473.9 902.1L2489.8 898.3Q2497.8 896.0 2501.8 890.3Q2505.8 884.6 2504.7 873.2L2504.7 873.2L2483.8 691.6Q2479.6 656.3 2465.3 638.4Q2451.1 620.5 2424.1 620.5L2424.1 620.5Q2407 620.5 2387.8 629.9Q2368.6 639.2 2347.0 657.8L2347.0 657.8ZM2896.8 883.5L2896.8 883.5L2896.8 875.9L2890.7 874L2890.7 652.1Q2890.7 622.1 2875.7 605.9Q2860.7 589.8 2833.4 589.8L2833.4 589.8Q2807.5 589.8 2794.2 600.6Q2780.9 611.4 2780.9 626.6L2780.9 626.6L2780.9 658.5Q2780.9 679.1 2767.4 690.1Q2753.9 701.1 2729.6 701.1L2729.6 701.1Q2708.3 701.1 2697.3 690.8Q2686.3 680.6 2686.3 662.7L2686.3 662.7Q2686.3 638.8 2705.3 616.4Q2724.3 593.9 2761.0 579.3Q2797.6 564.7 2850.5 564.7L2850.5 564.7Q2917.7 564.7 2950.6 592.8Q2983.5 620.9 2983.5 668.0L2983.5 668.0L2983.5 869.8Q2983.5 881.2 2988.0 886.7Q2992.6 892.2 3000.6 892.2L3000.6 892.2Q3009.7 892.2 3013.7 888.1Q3017.7 883.9 3020.7 879.7L3020.7 879.7Q3023.0 877.4 3025.1 875.7Q3027.2 874 3030.2 874L3030.2 874Q3034.4 874 3036.5 877.0Q3038.6 880.1 3038.6 885.4L3038.6 885.4Q3038.6 897.2 3030.4 909.9Q3022.2 922.6 3006.1 931.4Q2989.9 940.1 2966.0 940.1L2966.0 940.1Q2934.1 940.1 2915.4 925.3Q2896.8 910.5 2896.8 883.5ZM2670.0 851.6L2670.0 851.6Q2670.0 805.6 2711.2 776.5Q2752.4 747.5 2826.1 747.5L2826.1 747.5Q2851.6 747.5 2872.3 752.0Q2893.0 756.6 2908.6 763.8L2908.6 763.8L2901.4 786.2Q2886.9 780.1 2871.9 776.1Q2856.9 772.2 2839.1 772.2L2839.1 772.2Q2804.9 772.2 2785.3 789.3Q2765.7 806.4 2765.7 836.4L2765.7 836.4Q2765.7 865.6 2782.1 881.4Q2798.4 897.2 2823.9 897.2L2823.9 897.2Q2846.7 897.2 2867.8 886.7Q2888.8 876.3 2903.7 857.3L2903.7 857.3L2912.0 877.0Q2890.0 907.1 2854.8 923.6Q2819.7 940.1 2780.2 940.1L2780.2 940.1Q2731.1 940.1 2700.6 916.0Q2670.0 891.9 2670.0 851.6Z "/></g><mask id="satori_om-id-1"><rect x="808" y="1092" width="2384" height="132" fill="#fff"/></mask><g  ><path fill="#4A7C4E" d="M912.5 1206L886.7 1206L861.0 1110.0L886.2 1110.0L895.7 1152.4Q897.1 1158.9 898.3 1166.4Q899.4 1173.9 900.5 1181.4Q901.6 1188.9 902.7 1195.6L902.7 1195.6L898.4 1195.6Q899.7 1188.9 900.9 1181.4Q902.0 1173.9 903.3 1166.4Q904.6 1158.9 906.1 1152.4L906.1 1152.4L916.3 1110.0L939.5 1110.0L949.6 1152.4Q951.1 1158.9 952.4 1166.4Q953.7 1173.9 954.9 1181.4Q956.1 1188.9 957.3 1195.6L957.3 1195.6L953.0 1195.6Q954.2 1188.9 955.2 1181.4Q956.3 1173.9 957.5 1166.4Q958.7 1158.9 960.0 1152.4L960.0 1152.4L969.5 1110.0L994.7 1110.0L969.1 1206L943.3 1206L932.1 1161.7Q929.8 1152.6 928.4 1142.0Q926.9 1131.4 925.0 1120.9L925.0 1120.9L930.8 1120.9Q928.6 1131.2 927.4 1141.7Q926.1 1152.2 923.7 1161.7L923.7 1161.7L912.5 1206ZM1076.2 1206L1050.9 1206L1083.0 1110.0L1113.4 1110.0L1146.4 1206L1120.9 1206L1107.6 1164.0Q1104.4 1153.5 1101.4 1141.7Q1098.4 1129.9 1095.3 1117.2L1095.3 1117.2L1100.4 1117.2Q1097.5 1129.9 1094.8 1141.8Q1092.1 1153.6 1089.1 1164.0L1089.1 1164.0L1076.2 1206ZM1124.7 1185.6L1072.7 1185.6L1072.7 1168.2L1124.7 1168.2L1124.7 1185.6ZM1244.2 1207.3L1244.2 1207.3Q1232.2 1207.3 1223.3 1203.7Q1214.4 1200.1 1209.4 1192.7Q1204.5 1185.4 1204.3 1174.3L1204.3 1174.3L1226.1 1174.3Q1226.4 1178.9 1228.7 1182.1Q1230.9 1185.2 1234.8 1186.8Q1238.7 1188.4 1243.9 1188.4L1243.9 1188.4Q1248.6 1188.4 1252.0 1187.1Q1255.4 1185.8 1257.3 1183.5Q1259.1 1181.2 1259.1 1178.1L1259.1 1178.1Q1259.1 1175.3 1257.4 1173.4Q1255.7 1171.5 1252.3 1170.0Q1248.9 1168.5 1243.6 1167.3L1243.6 1167.3L1233.4 1164.9Q1221.0 1162.1 1213.9 1155.7Q1206.8 1149.2 1206.8 1138.4L1206.8 1138.4Q1206.8 1129.5 1211.6 1122.8Q1216.5 1116.1 1224.9 1112.4Q1233.3 1108.7 1244.2 1108.7L1244.2 1108.7Q1255.3 1108.7 1263.5 1112.4Q1271.7 1116.2 1276.2 1123.0Q1280.7 1129.7 1280.8 1138.6L1280.8 1138.6L1259.0 1138.6Q1258.5 1133.4 1254.7 1130.5Q1250.9 1127.6 1244.1 1127.6L1244.1 1127.6Q1239.6 1127.6 1236.5 1128.8Q1233.4 1129.9 1231.9 1132.0Q1230.3 1134.1 1230.3 1136.8L1230.3 1136.8Q1230.3 1139.8 1232.1 1141.8Q1233.8 1143.9 1237.0 1145.2Q1240.2 1146.6 1244.5 1147.5L1244.5 1147.5L1252.8 1149.5Q1259.8 1151.0 1265.2 1153.5Q1270.7 1156.0 1274.4 1159.6Q1278.2 1163.1 1280.2 1167.8Q1282.1 1172.4 1282.1 1178.2L1282.1 1178.2Q1282.1 1187.2 1277.6 1193.8Q1273.0 1200.3 1264.6 1203.8Q1256.1 1207.3 1244.2 1207.3ZM1370.3 1128.5L1341.2 1128.5L1341.2 1110.0L1422.0 1110.0L1422.0 1128.5L1392.9 1128.5L1392.9 1206L1370.3 1206L1370.3 1128.5ZM1550.5 1206L1483.9 1206L1483.9 1110.0L1550.5 1110.0L1550.5 1128.5L1506.7 1128.5L1506.7 1148.4L1547.1 1148.4L1547.1 1166.6L1506.7 1166.6L1506.7 1187.4L1550.5 1187.4L1550.5 1206Z M1716.4 1206L1693.6 1206L1693.6 1110.0L1729.0 1110.0L1741.3 1147.3Q1742.3 1150.8 1743.6 1156.4Q1745.0 1162.0 1746.3 1168.5Q1747.7 1174.9 1748.8 1180.9Q1749.9 1186.9 1750.6 1191.2L1750.6 1191.2L1746.3 1191.2Q1747.0 1187.0 1748.2 1181.0Q1749.3 1175.0 1750.6 1168.5Q1751.9 1162.0 1753.3 1156.4Q1754.6 1150.8 1755.6 1147.3L1755.6 1147.3L1767.7 1110.0L1803.2 1110.0L1803.2 1206L1780.3 1206L1780.3 1164.6Q1780.3 1161.4 1780.4 1156.3Q1780.5 1151.3 1780.7 1145.3Q1780.9 1139.4 1781.0 1133.4Q1781.2 1127.4 1781.2 1122.1L1781.2 1122.1L1782.5 1122.1Q1781.4 1127.9 1779.9 1134.0Q1778.4 1140.1 1776.8 1145.9Q1775.3 1151.7 1773.9 1156.6Q1772.6 1161.4 1771.6 1164.6L1771.6 1164.6L1757.9 1206L1738.9 1206L1725.1 1164.6Q1724.1 1161.5 1722.7 1156.6Q1721.2 1151.8 1719.7 1146.0Q1718.2 1140.2 1716.6 1134.1Q1715.1 1127.9 1713.8 1122.1L1713.8 1122.1L1715.4 1122.1Q1715.5 1127.2 1715.6 1133.2Q1715.8 1139.2 1715.9 1145.2Q1716.1 1151.2 1716.3 1156.3Q1716.4 1161.3 1716.4 1164.6L1716.4 1164.6L1716.4 1206ZM1889.1 1206L1863.8 1206L1895.9 1110.0L1926.4 1110.0L1959.4 1206L1933.8 1206L1920.5 1164.0Q1917.3 1153.5 1914.3 1141.7Q1911.3 1129.9 1908.2 1117.2L1908.2 1117.2L1913.3 1117.2Q1910.4 1129.9 1907.7 1141.8Q1905.0 1153.6 1902.0 1164.0L1902.0 1164.0L1889.1 1206ZM1937.6 1185.6L1885.6 1185.6L1885.6 1168.2L1937.6 1168.2L1937.6 1185.6ZM2043.4 1206L2020.0 1206L2020.0 1110.0L2045.0 1110.0L2071.8 1153.3Q2074.4 1157.7 2076.9 1162.3Q2079.4 1166.9 2081.8 1172.5Q2084.3 1178.1 2086.8 1185.4L2086.8 1185.4L2084.7 1185.4Q2084.3 1180.1 2083.9 1173.6Q2083.4 1167.2 2083.1 1161.1Q2082.8 1155.0 2082.8 1150.8L2082.8 1150.8L2082.8 1110.0L2106.1 1110.0L2106.1 1206L2081.1 1206L2056.5 1166.2Q2053.2 1160.8 2050.5 1155.9Q2047.9 1151.0 2045.2 1145.2Q2042.5 1139.5 2038.9 1131.8L2038.9 1131.8L2041.5 1131.8Q2042.0 1138.6 2042.4 1145.2Q2042.8 1151.7 2043.1 1157.2Q2043.4 1162.6 2043.4 1166.2L2043.4 1166.2L2043.4 1206ZM2192.1 1206L2166.8 1206L2198.8 1110.0L2229.3 1110.0L2262.3 1206L2236.8 1206L2223.4 1164.0Q2220.2 1153.5 2217.2 1141.7Q2214.2 1129.9 2211.2 1117.2L2211.2 1117.2L2216.3 1117.2Q2213.4 1129.9 2210.7 1141.8Q2208.0 1153.6 2205.0 1164.0L2205.0 1164.0L2192.1 1206ZM2240.6 1185.6L2188.6 1185.6L2188.6 1168.2L2240.6 1168.2L2240.6 1185.6ZM2366.9 1207.3L2366.9 1207.3Q2353.2 1207.3 2342.8 1201.3Q2332.5 1195.4 2326.6 1184.3Q2320.8 1173.3 2320.8 1158.2L2320.8 1158.2Q2320.8 1142.4 2326.9 1131.4Q2333.1 1120.3 2343.4 1114.5Q2353.8 1108.7 2366.6 1108.7L2366.6 1108.7Q2374.9 1108.7 2382.1 1111.1Q2389.2 1113.4 2394.7 1117.8Q2400.3 1122.2 2403.8 1128.2Q2407.2 1134.1 2408.1 1141.3L2408.1 1141.3L2385.1 1141.3Q2384.3 1138.3 2382.7 1136.0Q2381.1 1133.6 2378.8 1132.0Q2376.5 1130.3 2373.5 1129.5Q2370.6 1128.7 2367.0 1128.7L2367.0 1128.7Q2360.0 1128.7 2354.9 1132.1Q2349.7 1135.5 2346.9 1142.0Q2344.1 1148.6 2344.1 1157.9L2344.1 1157.9Q2344.1 1167.2 2346.8 1173.8Q2349.5 1180.3 2354.7 1183.8Q2359.8 1187.3 2367.1 1187.3L2367.1 1187.3Q2373.6 1187.3 2378.1 1185.2Q2382.5 1183.1 2384.9 1179.1Q2387.2 1175.1 2387.2 1169.8L2387.2 1169.8L2391.5 1170.4L2368.0 1170.4L2368.0 1153.7L2409.2 1153.7L2409.2 1166.3Q2409.2 1179.1 2403.7 1188.3Q2398.3 1197.5 2388.8 1202.4Q2379.2 1207.3 2366.9 1207.3ZM2539.0 1206L2472.5 1206L2472.5 1110.0L2539.1 1110.0L2539.1 1128.5L2495.2 1128.5L2495.2 1148.4L2535.6 1148.4L2535.6 1166.6L2495.2 1166.6L2495.2 1187.4L2539.0 1187.4L2539.0 1206ZM2625.9 1206L2603.1 1206L2603.1 1110.0L2638.6 1110.0L2650.8 1147.3Q2651.9 1150.8 2653.2 1156.4Q2654.5 1162.0 2655.8 1168.5Q2657.2 1174.9 2658.3 1180.9Q2659.5 1186.9 2660.2 1191.2L2660.2 1191.2L2655.8 1191.2Q2656.6 1187.0 2657.7 1181.0Q2658.8 1175.0 2660.1 1168.5Q2661.5 1162.0 2662.8 1156.4Q2664.1 1150.8 2665.1 1147.3L2665.1 1147.3L2677.2 1110.0L2712.7 1110.0L2712.7 1206L2689.8 1206L2689.8 1164.6Q2689.8 1161.4 2689.9 1156.3Q2690.1 1151.3 2690.2 1145.3Q2690.4 1139.4 2690.6 1133.4Q2690.7 1127.4 2690.7 1122.1L2690.7 1122.1L2692.1 1122.1Q2690.9 1127.9 2689.4 1134.0Q2687.9 1140.1 2686.4 1145.9Q2684.9 1151.7 2683.5 1156.6Q2682.1 1161.4 2681.1 1164.6L2681.1 1164.6L2667.4 1206L2648.4 1206L2634.6 1164.6Q2633.6 1161.5 2632.2 1156.6Q2630.8 1151.8 2629.2 1146.0Q2627.7 1140.2 2626.1 1134.1Q2624.6 1127.9 2623.3 1122.1L2623.3 1122.1L2625.0 1122.1Q2625.0 1127.2 2625.2 1133.2Q2625.3 1139.2 2625.5 1145.2Q2625.6 1151.2 2625.8 1156.3Q2625.9 1161.3 2625.9 1164.6L2625.9 1164.6L2625.9 1206ZM2844.4 1206L2777.8 1206L2777.8 1110.0L2844.5 1110.0L2844.5 1128.5L2800.6 1128.5L2800.6 1148.4L2841.0 1148.4L2841.0 1166.6L2800.6 1166.6L2800.6 1187.4L2844.4 1187.4L2844.4 1206ZM2931.8 1206L2908.5 1206L2908.5 1110.0L2933.5 1110.0L2960.3 1153.3Q2962.9 1157.7 2965.4 1162.3Q2967.8 1166.9 2970.3 1172.5Q2972.7 1178.1 2975.2 1185.4L2975.2 1185.4L2973.1 1185.4Q2972.7 1180.1 2972.3 1173.6Q2971.9 1167.2 2971.6 1161.1Q2971.2 1155.0 2971.2 1150.8L2971.2 1150.8L2971.2 1110.0L2994.6 1110.0L2994.6 1206L2969.5 1206L2945.0 1166.2Q2941.7 1160.8 2939.0 1155.9Q2936.3 1151.0 2933.6 1145.2Q2931.0 1139.5 2927.4 1131.8L2927.4 1131.8L2930.0 1131.8Q2930.4 1138.6 2930.9 1145.2Q2931.3 1151.7 2931.5 1157.2Q2931.8 1162.6 2931.8 1166.2L2931.8 1166.2L2931.8 1206ZM3085.5 1128.5L3056.5 1128.5L3056.5 1110.0L3137.3 1110.0L3137.3 1128.5L3108.2 1128.5L3108.2 1206L3085.5 1206L3085.5 1128.5Z "/></g></svg>