<svg width="4000" height="1700" viewBox="0 0 4000 1700" xmlns="http://www.w3.org/2000/svg"><mask id="satori_om-id"><rect x="0" y="0" width="4000" height="1700" fill="#fff"/></mask><mask id="satori_om-id-0"><rect x="963" y="334" width="2075" height="760" fill="#fff"/></mask><g  ><path fill="#2F4E3E" d="M1091.8 811.2L1094.9 775.1L1320.2 775.1L1322.5 811.2L1091.8 811.2ZM1135.1 973.4L1135.1 973.4Q1135.1 980.3 1130.0 984.6Q1124.9 989 1113.9 989L1113.9 989L995.7 989Q984.7 989 979.5 984.8Q974.4 980.6 974.4 973.4L974.4 973.4Q974.4 968.5 977.4 964.9Q980.5 961.3 988.8 957.5L988.8 957.5L1002.1 952.5Q1013.5 947.2 1019.4 938.6Q1025.3 930.1 1032.2 908.1L1032.2 908.1L1159.8 522.4Q1164.8 507.2 1162.3 500.5Q1159.8 493.9 1146.2 490.1L1146.2 490.1Q1135.9 486.6 1131.7 482.5Q1127.5 478.3 1127.5 472.2L1127.5 472.2Q1127.5 465.0 1132.9 461.0Q1138.2 457 1148.8 457L1148.8 457L1320.2 457Q1331.2 457 1336.2 461.0Q1341.1 465.0 1341.1 472.2L1341.1 472.2Q1341.1 478.7 1337.1 482.8Q1333.1 487.0 1323.2 489.7L1323.2 489.7Q1312.6 492.3 1310.7 497.5Q1308.8 502.6 1312.6 514.4L1312.6 514.4L1447.9 917.9Q1453.2 935.0 1460.2 943.4Q1467.3 951.8 1480.2 955.2L1480.2 955.2Q1490.8 959.0 1494.6 963.0Q1498.4 967.0 1498.4 973.4L1498.4 973.4Q1498.4 980.3 1493.1 984.6Q1487.8 989 1476.8 989L1476.8 989L1317.5 989Q1306.9 989 1301.6 984.6Q1296.3 980.3 1296.3 973.4L1296.3 973.4Q1296.3 967.3 1300.1 963.5Q1303.9 959.7 1311.8 957.5L1311.8 957.5L1336.2 953.3Q1346.0 950.6 1346.0 944.0Q1346.0 937.3 1341.1 922.9L1341.1 922.9L1201.3 497.3L1213.0 490.8L1077.4 903.1Q1072.8 917.9 1072.8 927.3Q1072.8 936.6 1078.7 942.5Q1084.6 948.3 1097.1 952.9L1097.1 952.9L1119.6 957.8Q1127.5 960.5 1131.3 963.9Q1135.1 967.3 1135.1 973.4ZM1667.9 448.3L1667.9 448.3L1667.9 932.4Q1667.9 943.4 1671.5 948.7Q1675.1 954.0 1682.0 956.3L1682.0 956.3L1697.9 960.1Q1705.1 962.4 1708.4 966.0Q1711.6 969.6 1711.6 974.9L1711.6 974.9Q1711.6 981.4 1707.0 985.2Q1702.5 989 1692.6 989L1692.6 989L1549.0 989Q1539.1 989 1534.5 985.2Q1530.0 981.4 1530.0 974.9L1530.0 974.9Q1530.0 969.6 1533.4 966.0Q1536.8 962.4 1543.6 960.1L1543.6 960.1L1560.0 956.3Q1567.2 954.0 1570.8 948.9Q1574.4 943.8 1574.4 932.8L1574.4 932.8L1574.4 507.2Q1574.4 498.0 1571.6 494.1Q1568.7 490.1 1561.9 488.9L1561.9 488.9L1539.1 487.8Q1532.2 486.3 1529.4 483.2Q1526.5 480.2 1526.5 475.2L1526.5 475.2Q1526.5 469.9 1530.0 466.3Q1533.4 462.7 1542.9 459.3L1542.9 459.3L1609.8 435.3Q1623.4 430.4 1631.4 428.3Q1639.4 426.2 1645.5 426.2L1645.5 426.2Q1656.5 426.2 1662.2 432.1Q1667.9 438 1667.9 448.3ZM1879.9 646.6L1879.9 646.6L1879.9 691.1L1883.7 699.1L1883.7 1109.5Q1883.7 1120.5 1887.3 1126.0Q1891.0 1131.5 1897.8 1133.0L1897.8 1133.0L1921.0 1137.2Q1928.2 1139.1 1931.4 1142.9Q1934.7 1146.7 1934.7 1152.0L1934.7 1152.0Q1934.7 1158.5 1930.1 1162.3Q1925.5 1166.1 1915.7 1166.1L1915.7 1166.1L1764.8 1166.1Q1755.3 1166.1 1750.7 1162.3Q1746.2 1158.5 1746.2 1152.0L1746.2 1152.0Q1746.2 1146.7 1749.4 1143.1Q1752.6 1139.5 1759.5 1137.2L1759.5 1137.2L1775.8 1133.4Q1783.0 1131.1 1786.6 1126.0Q1790.3 1120.9 1790.3 1109.8L1790.3 1109.8L1790.3 705.5Q1790.3 696.4 1787.2 692.4Q1784.2 688.4 1777.7 687.3L1777.7 687.3L1754.9 686.1Q1748.1 684.6 1745.2 681.6Q1742.4 678.5 1742.4 673.6L1742.4 673.6Q1742.4 668.3 1745.8 665.0Q1749.2 661.8 1758.7 658.0L1758.7 658.0L1821.8 633.7Q1834.7 628.8 1842.9 626.7Q1851.1 624.6 1857.1 624.6L1857.1 624.6Q1868.9 624.6 1874.4 630.5Q1879.9 636.4 1879.9 646.6ZM1863.6 739.3L1863.6 739.3L1848.8 718.8Q1878.4 673.2 1917.4 647.8Q1956.3 622.3 2003.1 622.3L2003.1 622.3Q2047.9 622.3 2083.1 645.3Q2118.2 668.3 2138.5 708.6Q2158.9 748.8 2158.9 801.3L2158.9 801.3Q2158.9 861.7 2134.9 905.8Q2111.0 949.9 2070.3 974.0Q2029.7 998.1 1979.5 998.1L1979.5 998.1Q1934.3 998.1 1898.9 976.5Q1863.6 954.8 1841.6 914.1L1841.6 914.1L1864.0 893.6Q1883.4 926.3 1908.6 942.8Q1933.9 959.4 1962.8 959.4L1962.8 959.4Q1990.9 959.4 2013.1 943.4Q2035.4 927.4 2048.3 894.6Q2061.2 861.7 2061.2 811.5L2061.2 811.5Q2061.2 764.0 2048.7 732.7Q2036.1 701.3 2014.6 685.8Q1993.2 670.2 1965.4 670.2L1965.4 670.2Q1936.6 670.2 1910.7 687.3Q1884.9 704.4 1863.6 739.3ZM2342.4 448.3L2342.4 448.3L2342.4 932.4Q2342.4 943.4 2345.8 948.7Q2349.2 954.0 2356.5 956.3L2356.5 956.3L2372.0 960.1Q2383.8 964.7 2383.8 974.2L2383.8 974.2Q2383.8 989 2364.4 989L2364.4 989L2223.5 989Q2213.6 989 2209.0 985.2Q2204.5 981.4 2204.5 974.9L2204.5 974.9Q2204.5 969.6 2207.7 966.0Q2210.9 962.4 2218.1 960.1L2218.1 960.1L2234.5 956.3Q2241.7 954.0 2245.3 948.9Q2248.9 943.8 2248.9 932.8L2248.9 932.8L2248.9 507.2Q2248.9 498.0 2245.9 494.1Q2242.8 490.1 2236.4 488.9L2236.4 488.9L2213.6 487.8Q2206.7 486.3 2203.9 483.2Q2201.0 480.2 2201.0 475.2L2201.0 475.2Q2201.0 469.9 2204.5 466.3Q2207.9 462.7 2217.4 459.3L2217.4 459.3L2284.3 435.3Q2297.2 430.4 2305.3 428.3Q2313.5 426.2 2320.4 426.2L2320.4 426.2Q2331.4 426.2 2336.9 432.1Q2342.4 438 2342.4 448.3ZM2347.0 715.8L2331 729.1L2315.0 712.7L2330.6 699.1Q2377.0 657.6 2410.2 640.0Q2443.5 622.3 2473.9 622.3L2473.9 622.3Q2520.2 622.3 2545.7 653.1Q2571.2 683.9 2576.9 735.5L2576.9 735.5L2598.9 931.2Q2600.4 943.0 2603.7 948.5Q2606.9 954.0 2614.5 956.3L2614.5 956.3L2629.3 960.1Q2636.1 962.4 2639.4 966.0Q2642.6 969.6 2642.6 974.9L2642.6 974.9Q2642.6 981.4 2638.2 985.2Q2633.9 989 2624.0 989L2624.0 989L2481.5 989Q2462.1 989 2462.1 974.2L2462.1 974.2Q2462.1 964.7 2473.9 960.1L2473.9 960.1L2489.8 956.3Q2497.8 954.0 2501.8 948.3Q2505.8 942.6 2504.7 931.2L2504.7 931.2L2483.8 749.6Q2479.6 714.3 2465.3 696.4Q2451.1 678.5 2424.1 678.5L2424.1 678.5Q2407 678.5 2387.8 687.9Q2368.6 697.2 2347.0 715.8L2347.0 715.8ZM2896.8 941.5L2896.8 941.5L2896.8 933.9L2890.7 932L2890.7 710.1Q2890.7 680.1 2875.7 663.9Q2860.7 647.8 2833.4 647.8L2833.4 647.8Q2807.5 647.8 2794.2 658.6Q2780.9 669.4 2780.9 684.6L2780.9 684.6L2780.9 716.5Q2780.9 737.1 2767.4 748.1Q2753.9 759.1 2729.6 759.1L2729.6 759.1Q2708.3 759.1 2697.3 748.8Q2686.3 738.6 2686.3 720.7L2686.3 720.7Q2686.3 696.8 2705.3 674.4Q2724.3 651.9 2761.0 637.3Q2797.6 622.7 2850.5 622.7L2850.5 622.7Q2917.7 622.7 2950.6 650.8Q2983.5 678.9 2983.5 726.0L2983.5 726.0L2983.5 927.8Q2983.5 939.2 2988.0 944.7Q2992.6 950.2 3000.6 950.2L3000.6 950.2Q3009.7 950.2 3013.7 946.1Q3017.7 941.9 3020.7 937.7L3020.7 937.7Q3023.0 935.4 3025.1 933.7Q3027.2 932 3030.2 932L3030.2 932Q3034.4 932 3036.5 935.0Q3038.6 938.1 3038.6 943.4L3038.6 943.4Q3038.6 955.2 3030.4 967.9Q3022.2 980.6 3006.1 989.4Q2989.9 998.1 2966.0 998.1L2966.0 998.1Q2934.1 998.1 2915.4 983.3Q2896.8 968.5 2896.8 941.5ZM2670.0 909.6L2670.0 909.6Q2670.0 863.6 2711.2 834.5Q2752.4 805.5 2826.1 805.5L2826.1 805.5Q2851.6 805.5 2872.3 810.0Q2893.0 814.6 2908.6 821.8L2908.6 821.8L2901.4 844.2Q2886.9 838.1 2871.9 834.1Q2856.9 830.2 2839.1 830.2L2839.1 830.2Q2804.9 830.2 2785.3 847.3Q2765.7 864.4 2765.7 894.4L2765.7 894.4Q2765.7 923.6 2782.1 939.4Q2798.4 955.2 2823.9 955.2L2823.9 955.2Q2846.7 955.2 2867.8 944.7Q2888.8 934.3 2903.7 915.3L2903.7 915.3L2912.0 935.0Q2890.0 965.1 2854.8 981.6Q2819.7 998.1 2780.2 998.1L2780.2 998.1Q2731.1 998.1 2700.6 974.0Q2670.0 949.9 2670.0 909.6Z "/></g><mask id="satori_om-id-1"><rect x="808" y="1234" width="2384" height="132" fill="#fff"/></mask><g  ><path fill="#6B6862" d="M912.5 1348L886.7 1348L861.0 1252.0L886.2 1252.0L895.7 1294.4Q897.1 1300.9 898.3 1308.4Q899.4 1315.9 900.5 1323.4Q901.6 1330.9 902.7 1337.6L902.7 1337.6L898.4 1337.6Q899.7 1330.9 900.9 1323.4Q902.0 1315.9 903.3 1308.4Q904.6 1300.9 906.1 1294.4L906.1 1294.4L916.3 1252.0L939.5 1252.0L949.6 1294.4Q951.1 1300.9 952.4 1308.4Q953.7 1315.9 954.9 1323.4Q956.1 1330.9 957.3 1337.6L957.3 1337.6L953.0 1337.6Q954.2 1330.9 955.2 1323.4Q956.3 1315.9 957.5 1308.4Q958.7 1300.9 960.0 1294.4L960.0 1294.4L969.5 1252.0L994.7 1252.0L969.1 1348L943.3 1348L932.1 1303.7Q929.8 1294.6 928.4 1284.0Q926.9 1273.4 925.0 1262.9L925.0 1262.9L930.8 1262.9Q928.6 1273.2 927.4 1283.7Q926.1 1294.2 923.7 1303.7L923.7 1303.7L912.5 1348ZM1076.2 1348L1050.9 1348L1083.0 1252.0L1113.4 1252.0L1146.4 1348L1120.9 1348L1107.6 1306.0Q1104.4 1295.5 1101.4 1283.7Q1098.4 1271.9 1095.3 1259.2L1095.3 1259.2L1100.4 1259.2Q1097.5 1271.9 1094.8 1283.8Q1092.1 1295.6 1089.1 1306.0L1089.1 1306.0L1076.2 1348ZM1124.7 1327.6L1072.7 1327.6L1072.7 1310.2L1124.7 1310.2L1124.7 1327.6ZM1244.2 1349.3L1244.2 1349.3Q1232.2 1349.3 1223.3 1345.7Q1214.4 1342.1 1209.4 1334.7Q1204.5 1327.4 1204.3 1316.3L1204.3 1316.3L1226.1 1316.3Q1226.4 1320.9 1228.7 1324.1Q1230.9 1327.2 1234.8 1328.8Q1238.7 1330.4 1243.9 1330.4L1243.9 1330.4Q1248.6 1330.4 1252.0 1329.1Q1255.4 1327.8 1257.3 1325.5Q1259.1 1323.2 1259.1 1320.1L1259.1 1320.1Q1259.1 1317.3 1257.4 1315.4Q1255.7 1313.5 1252.3 1312.0Q1248.9 1310.5 1243.6 1309.3L1243.6 1309.3L1233.4 1306.9Q1221.0 1304.1 1213.9 1297.7Q1206.8 1291.2 1206.8 1280.4L1206.8 1280.4Q1206.8 1271.5 1211.6 1264.8Q1216.5 1258.1 1224.9 1254.4Q1233.3 1250.7 1244.2 1250.7L1244.2 1250.7Q1255.3 1250.7 1263.5 1254.4Q1271.7 1258.2 1276.2 1265.0Q1280.7 1271.7 1280.8 1280.6L1280.8 1280.6L1259.0 1280.6Q1258.5 1275.4 1254.7 1272.5Q1250.9 1269.6 1244.1 1269.6L1244.1 1269.6Q1239.6 1269.6 1236.5 1270.8Q1233.4 1271.9 1231.9 1274.0Q1230.3 1276.1 1230.3 1278.8L1230.3 1278.8Q1230.3 1281.8 1232.1 1283.8Q1233.8 1285.9 1237.0 1287.2Q1240.2 1288.6 1244.5 1289.5L1244.5 1289.5L1252.8 1291.5Q1259.8 1293.0 1265.2 1295.5Q1270.7 1298.0 1274.4 1301.6Q1278.2 1305.1 1280.2 1309.8Q1282.1 1314.4 1282.1 1320.2L1282.1 1320.2Q1282.1 1329.2 1277.6 1335.8Q1273.0 1342.3 1264.6 1345.8Q1256.1 1349.3 1244.2 1349.3ZM1370.3 1270.5L1341.2 1270.5L1341.2 1252.0L1422.0 1252.0L1422.0 1270.5L1392.9 1270.5L1392.9 1348L1370.3 1348L1370.3 1270.5ZM1550.5 1348L1483.9 1348L1483.9 1252.0L1550.5 1252.0L1550.5 1270.5L1506.7 1270.5L1506.7 1290.4L1547.1 1290.4L1547.1 1308.6L1506.7 1308.6L1506.7 1329.4L1550.5 1329.4L1550.5 1348Z M1716.4 1348L1693.6 1348L1693.6 1252.0L1729.0 1252.0L1741.3 1289.3Q1742.3 1292.8 1743.6 1298.4Q1745.0 1304.0 1746.3 1310.5Q1747.7 1316.9 1748.8 1322.9Q1749.9 1328.9 1750.6 1333.2L1750.6 1333.2L1746.3 1333.2Q1747.0 1329.0 1748.2 1323.0Q1749.3 1317.0 1750.6 1310.5Q1751.9 1304.0 1753.3 1298.4Q1754.6 1292.8 1755.6 1289.3L1755.6 1289.3L1767.7 1252.0L1803.2 1252.0L1803.2 1348L1780.3 1348L1780.3 1306.6Q1780.3 1303.4 1780.4 1298.3Q1780.5 1293.3 1780.7 1287.3Q1780.9 1281.4 1781.0 1275.4Q1781.2 1269.4 1781.2 1264.1L1781.2 1264.1L1782.5 1264.1Q1781.4 1269.9 1779.9 1276.0Q1778.4 1282.1 1776.8 1287.9Q1775.3 1293.7 1773.9 1298.6Q1772.6 1303.4 1771.6 1306.6L1771.6 1306.6L1757.9 1348L1738.9 1348L1725.1 1306.6Q1724.1 1303.5 1722.7 1298.6Q1721.2 1293.8 1719.7 1288.0Q1718.2 1282.2 1716.6 1276.1Q1715.1 1269.9 1713.8 1264.1L1713.8 1264.1L1715.4 1264.1Q1715.5 1269.2 1715.6 1275.2Q1715.8 1281.2 1715.9 1287.2Q1716.1 1293.2 1716.3 1298.3Q1716.4 1303.3 1716.4 1306.6L1716.4 1306.6L1716.4 1348ZM1889.1 1348L1863.8 1348L1895.9 1252.0L1926.4 1252.0L1959.4 1348L1933.8 1348L1920.5 1306.0Q1917.3 1295.5 1914.3 1283.7Q1911.3 1271.9 1908.2 1259.2L1908.2 1259.2L1913.3 1259.2Q1910.4 1271.9 1907.7 1283.8Q1905.0 1295.6 1902.0 1306.0L1902.0 1306.0L1889.1 1348ZM1937.6 1327.6L1885.6 1327.6L1885.6 1310.2L1937.6 1310.2L1937.6 1327.6ZM2043.4 1348L2020.0 1348L2020.0 1252.0L2045.0 1252.0L2071.8 1295.3Q2074.4 1299.7 2076.9 1304.3Q2079.4 1308.9 2081.8 1314.5Q2084.3 1320.1 2086.8 1327.4L2086.8 1327.4L2084.7 1327.4Q2084.3 1322.1 2083.9 1315.6Q2083.4 1309.2 2083.1 1303.1Q2082.8 1297.0 2082.8 1292.8L2082.8 1292.8L2082.8 1252.0L2106.1 1252.0L2106.1 1348L2081.1 1348L2056.5 1308.2Q2053.2 1302.8 2050.5 1297.9Q2047.9 1293.0 2045.2 1287.2Q2042.5 1281.5 2038.9 1273.8L2038.9 1273.8L2041.5 1273.8Q2042.0 1280.6 2042.4 1287.2Q2042.8 1293.7 2043.1 1299.2Q2043.4 1304.6 2043.4 1308.2L2043.4 1308.2L2043.4 1348ZM2192.1 1348L2166.8 1348L2198.8 1252.0L2229.3 1252.0L2262.3 1348L2236.8 1348L2223.4 1306.0Q2220.2 1295.5 2217.2 1283.7Q2214.2 1271.9 2211.2 1259.2L2211.2 1259.2L2216.3 1259.2Q2213.4 1271.9 2210.7 1283.8Q2208.0 1295.6 2205.0 1306.0L2205.0 1306.0L2192.1 1348ZM2240.6 1327.6L2188.6 1327.6L2188.6 1310.2L2240.6 1310.2L2240.6 1327.6ZM2366.9 1349.3L2366.9 1349.3Q2353.2 1349.3 2342.8 1343.3Q2332.5 1337.4 2326.6 1326.3Q2320.8 1315.3 2320.8 1300.2L2320.8 1300.2Q2320.8 1284.4 2326.9 1273.4Q2333.1 1262.3 2343.4 1256.5Q2353.8 1250.7 2366.6 1250.7L2366.6 1250.7Q2374.9 1250.7 2382.1 1253.1Q2389.2 1255.4 2394.7 1259.8Q2400.3 1264.2 2403.8 1270.2Q2407.2 1276.1 2408.1 1283.3L2408.1 1283.3L2385.1 1283.3Q2384.3 1280.3 2382.7 1278.0Q2381.1 1275.6 2378.8 1274.0Q2376.5 1272.3 2373.5 1271.5Q2370.6 1270.7 2367.0 1270.7L2367.0 1270.7Q2360.0 1270.7 2354.9 1274.1Q2349.7 1277.5 2346.9 1284.0Q2344.1 1290.6 2344.1 1299.9L2344.1 1299.9Q2344.1 1309.2 2346.8 1315.8Q2349.5 1322.3 2354.7 1325.8Q2359.8 1329.3 2367.1 1329.3L2367.1 1329.3Q2373.6 1329.3 2378.1 1327.2Q2382.5 1325.1 2384.9 1321.1Q2387.2 1317.1 2387.2 1311.8L2387.2 1311.8L2391.5 1312.4L2368.0 1312.4L2368.0 1295.7L2409.2 1295.7L2409.2 1308.3Q2409.2 1321.1 2403.7 1330.3Q2398.3 1339.5 2388.8 1344.4Q2379.2 1349.3 2366.9 1349.3ZM2539.0 1348L2472.5 1348L2472.5 1252.0L2539.1 1252.0L2539.1 1270.5L2495.2 1270.5L2495.2 1290.4L2535.6 1290.4L2535.6 1308.6L2495.2 1308.6L2495.2 1329.4L2539.0 1329.4L2539.0 1348ZM2625.9 1348L2603.1 1348L2603.1 1252.0L2638.6 1252.0L2650.8 1289.3Q2651.9 1292.8 2653.2 1298.4Q2654.5 1304.0 2655.8 1310.5Q2657.2 1316.9 2658.3 1322.9Q2659.5 1328.9 2660.2 1333.2L2660.2 1333.2L2655.8 1333.2Q2656.6 1329.0 2657.7 1323.0Q2658.8 1317.0 2660.1 1310.5Q2661.5 1304.0 2662.8 1298.4Q2664.1 1292.8 2665.1 1289.3L2665.1 1289.3L2677.2 1252.0L2712.7 1252.0L2712.7 1348L2689.8 1348L2689.8 1306.6Q2689.8 1303.4 2689.9 1298.3Q2690.1 1293.3 2690.2 1287.3Q2690.4 1281.4 2690.6 1275.4Q2690.7 1269.4 2690.7 1264.1L2690.7 1264.1L2692.1 1264.1Q2690.9 1269.9 2689.4 1276.0Q2687.9 1282.1 2686.4 1287.9Q2684.9 1293.7 2683.5 1298.6Q2682.1 1303.4 2681.1 1306.6L2681.1 1306.6L2667.4 1348L2648.4 1348L2634.6 1306.6Q2633.6 1303.5 2632.2 1298.6Q2630.8 1293.8 2629.2 1288.0Q2627.7 1282.2 2626.1 1276.1Q2624.6 1269.9 2623.3 1264.1L2623.3 1264.1L2625.0 1264.1Q2625.0 1269.2 2625.2 1275.2Q2625.3 1281.2 2625.5 1287.2Q2625.6 1293.2 2625.8 1298.3Q2625.9 1303.3 2625.9 1306.6L2625.9 1306.6L2625.9 1348ZM2844.4 1348L2777.8 1348L2777.8 1252.0L2844.5 1252.0L2844.5 1270.5L2800.6 1270.5L2800.6 1290.4L2841.0 1290.4L2841.0 1308.6L2800.6 1308.6L2800.6 1329.4L2844.4 1329.4L2844.4 1348ZM2931.8 1348L2908.5 1348L2908.5 1252.0L2933.5 1252.0L2960.3 1295.3Q2962.9 1299.7 2965.4 1304.3Q2967.8 1308.9 2970.3 1314.5Q2972.7 1320.1 2975.2 1327.4L2975.2 1327.4L2973.1 1327.4Q2972.7 1322.1 2972.3 1315.6Q2971.9 1309.2 2971.6 1303.1Q2971.2 1297.0 2971.2 1292.8L2971.2 1292.8L2971.2 1252.0L2994.6 1252.0L2994.6 1348L2969.5 1348L2945.0 1308.2Q2941.7 1302.8 2939.0 1297.9Q2936.3 1293.0 2933.6 1287.2Q2931.0 1281.5 2927.4 1273.8L2927.4 1273.8L2930.0 1273.8Q2930.4 1280.6 2930.9 1287.2Q2931.3 1293.7 2931.5 1299.2Q2931.8 1304.6 2931.8 1308.2L2931.8 1308.2L2931.8 1348ZM3085.5 1270.5L3056.5 1270.5L3056.5 1252.0L3137.3 1252.0L3137.3 1270.5L3108.2 1270.5L3108.2 1348L3085.5 1348L3085.5 1270.5Z "/></g></svg>